#!OML:ASF X:\für Bonn\!DataBase\2005_08_11_Bastian_Final\c3d\Bastian.ASF
:FULLY-SPECIFIED
:DEGREES
205
root -5.55356 17.1797 -15.4065 170.61 10.0281 -172.871
lowerback 8.37043 -1.92036 -1.54324
upperback 5.34362 -2.22169 0.992921
thorax 0.944002 -0.978942 2.05376
lowerneck -7.56385 -4.64388 -9.41102
upperneck -6.57283 -4.28426 17.5891
head 0.0259647 -1.60442 6.81753
rclavicle 4.42296e-015 3.65764e-014
rhumerus -47.0674 24.3525 -104.137
rradius 114.144
rwrist 5.96409
rhand -20.891 18.0662
rfingers 7.12502
rthumb 5.47961 -11.843
lclavicle 4.42296e-015 3.65764e-014
lhumerus -24.4986 -45.096 103.297
lradius 110.837
lwrist 32.452
lhand -3.41418 -15.9145
lfingers 7.12502
lthumb 22.3164 12.8168
rfemur -15.4319 3.83346 25.4587
rtibia 46.9307
rfoot -191.448 -187.588
rtoes 3.71211
lfemur 9.55052 4.05139 -7.51246
ltibia 36.9985
lfoot -16.8829 -5.02109
ltoes -15.0397
206
root -5.56937 17.1867 -15.3653 170.688 9.71625 -172.874
lowerback 8.26814 -1.87417 -1.54365
upperback 5.3275 -2.16248 0.974321
thorax 0.979795 -0.950624 2.02766
lowerneck -7.65399 -4.70214 -9.3517
upperneck -6.57762 -4.3564 17.5443
head 0.0461441 -1.63415 6.78855
rclavicle -3.37934e-015 -1.11319e-014
rhumerus -46.882 24.6237 -104.507
rradius 114.25
rwrist 6.00454
rhand -21.2803 18.2141
rfingers 7.12502
rthumb 5.10373 -11.7045
lclavicle -3.37934e-015 -1.11319e-014
lhumerus -24.8675 -45.0389 103.227
lradius 110.433
lwrist 32.35
lhand -3.23902 -16.0477
lfingers 7.12502
lthumb 22.4846 12.6633
rfemur -15.0205 3.69641 25.4401
rtibia 47.1763
rfoot -192.125 -187.629
rtoes 3.72023
lfemur 9.15524 3.81893 -7.63861
ltibia 37.1317
lfoot -16.9998 -4.98867
ltoes -15.4374
207
root -5.58358 17.1917 -15.3231 170.787 9.38188 -172.873
lowerback 8.13487 -1.83982 -1.55958
upperback 5.31681 -2.11976 0.965368
thorax 1.04017 -0.931449 2.02046
lowerneck -7.74537 -4.73714 -9.26916
upperneck -6.59572 -4.39569 17.4824
head 0.0568572 -1.648 6.75168
rclavicle 6.90777e-015 2.8625e-014
rhumerus -46.6781 24.9415 -104.85
rradius 114.344
rwrist 6.0972
rhand -21.6612 18.3292
rfingers 7.12502
rthumb 4.73594 -11.5978
lclavicle 6.90777e-015 2.8625e-014
lhumerus -25.1982 -44.9689 103.127
lradius 110.06
lwrist 32.2661
lhand -3.04345 -16.1721
lfingers 7.12502
lthumb 22.6723 12.5161
rfemur -14.6142 3.65827 25.4259
rtibia 47.4344
rfoot -192.825 -187.62
rtoes 3.94609
lfemur 8.72027 3.58003 -7.74508
ltibia 37.288
lfoot -17.1444 -5.0164
ltoes -15.8609
208
root -5.59604 17.1947 -15.2817 170.891 9.05876 -172.908
lowerback 7.97783 -1.78126 -1.57676
upperback 5.29292 -2.04702 0.927721
thorax 1.09741 -0.897722 1.98203
lowerneck -7.78025 -4.77559 -9.14376
upperneck -6.61581 -4.44886 17.3923
head 0.0571396 -1.67321 6.69854
rclavicle 1.68967e-014 1.19271e-014
rhumerus -46.4542 25.1955 -105.19
rradius 114.381
rwrist 6.21845
rhand -22.0317 18.5087
rfingers 7.12502
rthumb 4.37821 -11.426
lclavicle 1.68967e-014 1.19271e-014
lhumerus -25.5419 -44.9746 103.022
lradius 109.715
lwrist 32.1752
lhand -2.92732 -16.3108
lfingers 7.12502
lthumb 22.7837 12.3637
rfemur -14.2001 3.75708 25.3824
rtibia 47.7034
rfoot -193.542 -187.529
rtoes 4.36839
lfemur 8.28453 3.34423 -7.88885
ltibia 37.455
lfoot -17.3124 -5.01454
ltoes -16.263
209
root -5.60693 17.1953 -15.2409 170.984 8.72555 -172.945
lowerback 7.8014 -1.73517 -1.60364
upperback 5.28073 -1.99015 0.899303
thorax 1.17911 -0.872269 1.95915
lowerneck -7.77938 -4.79663 -9.03186
upperneck -6.67831 -4.47214 17.313
head 0.0360838 -1.68545 6.65366
rclavicle 2.62893e-014 2.06736e-014
rhumerus -46.2404 25.5077 -105.503
rradius 114.461
rwrist 6.33387
rhand -22.3291 18.6061
rfingers 7.12502
rthumb 4.091 -11.3343
lclavicle 2.62893e-014 2.06736e-014
lhumerus -25.8637 -44.9506 102.906
lradius 109.402
lwrist 32.0807
lhand -2.85608 -16.451
lfingers 7.12502
lthumb 22.8521 12.2151
rfemur -13.7593 3.89076 25.3351
rtibia 47.978
rfoot -194.283 -187.31
rtoes 4.89397
lfemur 7.8651 3.11836 -8.01675
ltibia 37.6229
lfoot -17.5159 -5.02852
ltoes -16.6994
210
root -5.61624 17.195 -15.2008 171.091 8.38471 -173.003
lowerback 7.60505 -1.68329 -1.65311
upperback 5.2577 -1.92826 0.868893
thorax 1.26118 -0.845536 1.94645
lowerneck -7.77232 -4.81231 -8.90669
upperneck -6.72053 -4.49463 17.2136
head 0.0184455 -1.69836 6.60003
rclavicle 7.35503e-015 2.38542e-014
rhumerus -46.0277 25.8185 -105.793
rradius 114.53
rwrist 6.50143
rhand -22.5367 18.6887
rfingers 7.12502
rthumb 3.89053 -11.2555
lclavicle 7.35503e-015 2.38542e-014
lhumerus -26.186 -44.9275 102.821
lradius 109.135
lwrist 32.0306
lhand -2.80017 -16.5419
lfingers 7.12502
lthumb 22.9057 12.1175
rfemur -13.3295 4.08325 25.2663
rtibia 48.251
rfoot -194.967 -186.983
rtoes 5.46623
lfemur 7.43493 2.9086 -8.15541
ltibia 37.7772
lfoot -17.7057 -5.08258
ltoes -17.0108
